<svg xmlns="http://www.w3.org/2000/svg" viewBox="0 0 100 100">
  <defs>
    <linearGradient id="indigoGrad" x1="0%" y1="0%" x2="100%" y2="100%">
      <stop offset="0%" stop-color="#E0E7FF" />
      <stop offset="100%" stop-color="#C7D2FE" />
    </linearGradient>
  </defs>
  <circle cx="50" cy="50" r="48" fill="url(#indigoGrad)" />
  <!-- Hair -->
  <path d="M26 42c0-10 12-15 24-15s24 5 24 15z" fill="#111827" />
  <!-- Neck -->
  <rect x="46" y="62" width="8" height="10" rx="4" fill="#FDBA74" />
  <!-- Face -->
  <circle cx="50" cy="48" r="22" fill="#FDBA74" />
  <!-- Glasses -->
  <circle cx="42" cy="46" r="5" stroke="#111827" stroke-width="2" fill="none" />
  <circle cx="58" cy="46" r="5" stroke="#111827" stroke-width="2" fill="none" />
  <line x1="47" y1="46" x2="53" y2="46" stroke="#111827" stroke-width="2" />
  <!-- Smile -->
  <path d="M47 55q3 2 6 0" stroke="#111827" stroke-width="1.5" stroke-linecap="round" fill="none" />
  <!-- Clothes: Suit -->
  <path d="M30 80c5-12 11-14 20-14s15 2 20 14z" fill="#312E81" />
  <!-- Shirt/Tie -->
  <path d="M44 66l6 8 6-8z" fill="#FFF" />
  <path d="M49 66l2 10 2-10z" fill="#4F46E5" />
</svg>
