<svg xmlns="http://www.w3.org/2000/svg" viewBox="0 0 100 100">
  <defs>
    <linearGradient id="pinkGrad" x1="0%" y1="0%" x2="100%" y2="100%">
      <stop offset="0%" stop-color="#FECDD3" />
      <stop offset="100%" stop-color="#FDA4AF" />
    </linearGradient>
  </defs>
  <circle cx="50" cy="50" r="48" fill="url(#pinkGrad)" />
  <!-- Hair buns -->
  <circle cx="28" cy="35" r="12" fill="#1F2937" />
  <circle cx="72" cy="35" r="12" fill="#1F2937" />
  <!-- Neck -->
  <rect x="46" y="62" width="8" height="10" rx="4" fill="#FDBA74" />
  <!-- Face -->
  <circle cx="50" cy="48" r="22" fill="#FDBA74" />
  <!-- Hair bangs -->
  <path d="M28 48c0-12 9-22 22-22s22 10 22 22c-3-4-9-6-14-3-4 2-5 6-8 6s-4-4-8-6c-5-3-11-1-14 3z" fill="#1F2937" />
  <!-- Eyes -->
  <circle cx="43" cy="48" r="2.5" fill="#111827" />
  <circle cx="57" cy="48" r="2.5" fill="#111827" />
  <!-- Blush -->
  <circle cx="38" cy="53" r="3" fill="#F87171" opacity="0.6" />
  <circle cx="62" cy="53" r="3" fill="#F87171" opacity="0.6" />
  <!-- Smile -->
  <path d="M47 54q3 3 6 0" stroke="#111827" stroke-width="2" stroke-linecap="round" fill="none" />
  <!-- Clothes -->
  <path d="M30 80c5-12 11-14 20-14s15 2 20 14z" fill="#E11D48" />
  <path d="M50 66l-5 6h10z" fill="#FFF" />
</svg>
