<svg xmlns="http://www.w3.org/2000/svg" viewBox="0 0 100 100">
  <defs>
    <linearGradient id="tealGrad" x1="0%" y1="0%" x2="100%" y2="100%">
      <stop offset="0%" stop-color="#CCFBF1" />
      <stop offset="100%" stop-color="#99F6E4" />
    </linearGradient>
  </defs>
  <circle cx="50" cy="50" r="48" fill="url(#tealGrad)" />
  <!-- Hair -->
  <path d="M28 45c0-10 10-18 22-18s22 8 22 18z" fill="#4B5563" />
  <!-- Neck -->
  <rect x="46" y="62" width="8" height="10" rx="4" fill="#FDBA74" />
  <!-- Face -->
  <circle cx="50" cy="48" r="22" fill="#FDBA74" />
  <!-- Eyes -->
  <circle cx="43" cy="48" r="2.5" fill="#111827" />
  <circle cx="57" cy="48" r="2.5" fill="#111827" />
  <!-- Smile -->
  <path d="M46 54q4 3 8 0" stroke="#111827" stroke-width="1.5" stroke-linecap="round" fill="none" />
  <!-- Service Cap / Headband -->
  <path d="M36 32c5-3 23-3 28 0z" fill="#14B8A6" />
  <!-- Clothes -->
  <path d="M30 80c5-12 11-14 20-14s15 2 20 14z" fill="#0D9488" />
  <!-- Collar -->
  <path d="M42 66l8 10 8-10z" fill="#FFF" />
  <path d="M48 66l2 12 2-12z" fill="#F43F5E" /> <!-- Small Tie/Bow -->
</svg>
